<?xml version="1.0" encoding="UTF-8" standalone="no" ?>
<!DOCTYPE svg PUBLIC "-//W3C//DTD SVG 1.1//EN" "http://www.w3.org/Graphics/SVG/1.1/DTD/svg11.dtd">
<svg xmlns="http://www.w3.org/2000/svg" xmlns:xlink="http://www.w3.org/1999/xlink" version="1.1" width="1280" height="1024" viewBox="0 0 1280 1024" xml:space="preserve">
<desc>Created with Fabric.js 4.4.0</desc>
<defs>
</defs>
<g transform="matrix(1 0 0 1 640 512)" id="background-logo"  >
<rect style="stroke: none; stroke-width: 0; stroke-dasharray: none; stroke-linecap: butt; stroke-dashoffset: 0; stroke-linejoin: miter; stroke-miterlimit: 4; fill: rgb(255,255,255); fill-opacity: 0; fill-rule: nonzero; opacity: 1;"  paint-order="stroke"  x="-640" y="-512" rx="0" ry="0" width="1280" height="1024" />
</g>
<g transform="matrix(2.0312827588897053 0 0 2.0312827588897053 651.8230612842103 522.942079245466)" id="logo-logo"  >
<g style=""  paint-order="stroke"   >
		<g transform="matrix(0.22168510693310126 0 0 -0.22168510693310126 0 0)"  >
<path style="stroke: none; stroke-width: 1; stroke-dasharray: none; stroke-linecap: butt; stroke-dashoffset: 0; stroke-linejoin: miter; stroke-miterlimit: 4; fill: rgb(217,217,216); fill-rule: nonzero; opacity: 1;"  paint-order="stroke"  transform=" translate(-402.04900000000004, -605)" d="M 724.117 695.559 C 718.4449999999999 703.148 712.586 710.5939999999999 706.414 717.766 L 610.031 717.766 C 611.227 720.5079999999999 612.512 723.1949999999999 613.602 725.992 C 621.9449999999999 747.461 627.0269999999999 770.4879999999999 628.492 794.5 L 742.949 794.5 C 741.5899999999999 759.938 735.055 726.723 724.117 695.559 z M 628.492 415.5 C 627.0269999999999 439.512 621.9449999999999 462.539 613.602 484.008 C 612.512 486.805 611.227 489.49199999999996 610.031 492.234 L 706.414 492.234 C 712.586 499.406 718.4449999999999 506.852 724.117 514.441 C 735.055 483.27700000000004 741.5899999999999 450.06300000000005 742.949 415.5 z M 402.051 60.5586 C 317.61699999999996 60.5586 240.301 91.4297 180.63299999999998 142.37900000000002 L 168.23 174.762 L 518.098 174.762 L 551.043 94.9414 C 506.008 72.9492 455.473 60.5586 402.051 60.5586 Z M 104.188 235.32 C 93.7031 253.98 84.9219 273.723 78.0391 294.32 L 202.488 294.32 C 214.508 272.227 229.969 252.262 248.316 235.32 z M 656.371 174.762 C 640.465 156.949 622.77 140.762 603.492 126.602 L 583.617 174.762 z M 518.098 1035.24 L 168.23 1035.24 L 180.63299999999998 1067.6200000000001 C 240.301 1118.5700000000002 317.61699999999996 1149.44 402.051 1149.44 C 455.47299999999996 1149.44 506.008 1137.05 551.043 1115.06 z M 202.195 915.125 L 77.875 915.125 C 84.7813 935.922 93.6094 955.855 104.188 974.68 L 248.31599999999997 974.68 C 229.81599999999997 957.598 214.25399999999996 937.438 202.19499999999996 915.125 z M 603.492 1083.4 C 622.77 1069.23 640.4649999999999 1053.0500000000002 656.371 1035.24 L 583.617 1035.24 Z M 748.109 605 C 753.395 613.891 758.4340000000001 622.945 763.0310000000001 632.262 C 789.23 685.305 804.0980000000001 744.8439999999999 804.0980000000001 807.949 C 804.0980000000001 823.91 802.9100000000001 839.578 801.094 855.059 L 624.16 855.059 C 614.2379999999999 901.895 589.7339999999999 943.332 555.785 974.68 L 699.688 974.68 C 706.906 961.828 713.332 948.473 718.879 934.6719999999999 C 723.4920000000001 923.1909999999999 734.5310000000001 915.617 746.902 915.617 C 768.07 915.617 783.027 936.938 775.1800000000001 956.5899999999999 C 715.965 1104.86 571.207 1210 402.051 1210 C 180.355 1210 0 1029.64 0 807.949 C 0 803.41 0 770.105 5.05469 733.941 L 326.434 733.941 C 332.535 733.941 338.492 735.7850000000001 343.523 739.234 L 343.648 739.32 C 368.168 756.113 356.27700000000004 794.5 326.559 794.5 L 61.2383 794.5 C 61.0625 798.996 60.558600000000006 803.41 60.558600000000006 807.949 C 60.558600000000006 823.77 61.699200000000005 839.3159999999999 63.8008 854.5659999999999 L 243.117 854.5659999999999 L 243.117 857.1519999999999 C 264.17199999999997 925.0039999999999 327.371 974.4879999999999 402.051 974.4879999999999 C 453.496 974.4879999999999 499.395 950.9179999999999 529.922 914.121 C 530.75 913.125 531.594 912.141 532.398 911.125 C 547.2660000000001 892.336 558.258 870.336 563.957 846.281 C 566.879 833.949 568.586 821.16 568.586 807.949 C 568.586 778.656 560.922 751.141 547.578 727.199 C 545.789 723.9839999999999 543.879 720.848 541.8829999999999 717.766 L 420.23 717.766 C 414.06600000000003 717.766 408.05100000000004 715.8829999999999 402.98400000000004 712.367 L 402.86300000000006 712.281 C 378.52700000000004 695.391 390.4800000000001 657.207 420.1050000000001 657.207 L 652.566 657.207 C 658.445 649.156 679.336 614.313 683.875 605 C 679.336 595.688 658.445 560.844 652.566 552.793 L 420.105 552.793 C 390.48 552.793 378.52700000000004 514.609 402.863 497.719 L 402.984 497.633 C 408.051 494.11699999999996 414.066 492.234 420.22999999999996 492.234 L 541.8829999999999 492.234 C 543.8789999999999 489.152 545.7889999999999 486.01599999999996 547.578 482.801 C 560.922 458.859 568.586 431.34799999999996 568.586 402.051 C 568.586 388.84 566.879 376.051 563.957 363.719 C 558.258 339.65999999999997 547.266 317.668 532.398 298.875 C 531.594 297.859 530.75 296.875 529.922 295.879 C 499.39500000000004 259.086 453.49600000000004 235.51200000000003 402.05100000000004 235.51200000000003 C 326.59400000000005 235.51200000000003 262.7850000000001 286.004 242.40200000000004 354.94100000000003 L 179.93800000000005 354.94100000000003 L 179.95300000000003 354.879 L 63.8906 354.879 C 61.7422 370.305 60.5586 386.035 60.5586 402.05100000000004 C 60.5586 406.59000000000003 61.0625 411.004 61.238299999999995 415.50000000000006 L 343.293 415.50000000000006 C 373.012 415.50000000000006 384.898 453.88700000000006 360.383 470.68000000000006 L 360.258 470.7660000000001 C 355.227 474.2150000000001 349.27 476.0590000000001 343.168 476.0590000000001 L 5.05469 476.0590000000001 C 0 439.895 0 406.59 0 402.051 C 0 180.359 180.355 0 402.051 0 C 571.207 0 715.965 105.141 775.18 253.41 C 783.0269999999999 273.063 768.0699999999999 294.383 746.9019999999999 294.383 C 734.531 294.383 723.492 286.80899999999997 718.8789999999999 275.328 C 713.3319999999999 261.527 706.906 248.17199999999997 699.6879999999999 235.31999999999996 L 555.785 235.31999999999996 C 589.7339999999999 266.66799999999995 614.2379999999999 308.10499999999996 624.16 354.941 L 801.0939999999999 354.941 C 802.91 370.42199999999997 804.098 386.09 804.098 402.051 C 804.098 465.156 789.2299999999999 524.6949999999999 763.031 577.738 C 758.434 587.0550000000001 753.395 596.109 748.1089999999999 605" stroke-linecap="round" />
</g>
</g>
</g>
</svg>